<svg width="18" height="18" viewBox="0 0 18 18" fill="none" xmlns="http://www.w3.org/2000/svg">
<path d="M3.62 7.76639C5.06 10.5878 7.38 12.8908 10.21 14.3364L12.41 12.1431C12.68 11.8739 13.08 11.7842 13.43 11.9038C14.55 12.2727 15.76 12.4721 17 12.4721C17.55 12.4721 18 12.9207 18 13.4691V16.9485C18 17.4968 17.55 17.9455 17 17.9455C7.61 17.9455 0 10.3585 0 0.996968C0 0.448636 0.45 0 1 0H4.5C5.05 0 5.5 0.448636 5.5 0.996968C5.5 2.24318 5.7 3.43955 6.07 4.55615C6.18 4.90509 6.1 5.29391 5.82 5.57305L3.62 7.76639Z" fill="white"/>
</svg>
